<svg xmlns="http://www.w3.org/2000/svg" width="384.21" height="248.86" viewBox="0 0 384.21 248.86"><defs><style>.cls-1{fill:#0a2a66;}.cls-2,.cls-4{fill:none;stroke:#0a2a66;stroke-miterlimit:10;}.cls-2{stroke-width:0.89px;}.cls-3{fill:#fa50ae;}.cls-4{stroke-width:0.91px;}</style></defs><title>facilitylocation</title><g id="Layer_2" data-name="Layer 2"><circle class="cls-1" cx="238.9" cy="64.02" r="4.76"/><circle class="cls-1" cx="266.42" cy="38.29" r="4.76"/><circle class="cls-1" cx="293.35" cy="22.55" r="4.76"/><circle class="cls-1" cx="331.22" cy="25.24" r="4.76"/><circle class="cls-1" cx="349.83" cy="56.93" r="4.76"/><circle class="cls-1" cx="293.35" cy="68.24" r="4.76"/><circle class="cls-1" cx="344.79" cy="96.55" r="4.76"/><circle class="cls-1" cx="350.41" cy="116.57" r="4.76"/><circle class="cls-1" cx="329.93" cy="109.63" r="4.76"/><circle class="cls-1" cx="265.22" cy="111.81" r="4.76"/><circle class="cls-1" cx="281.82" cy="133.66" r="4.76"/><circle class="cls-1" cx="296.33" cy="161.17" r="4.76"/><circle class="cls-1" cx="324.67" cy="144.16" r="4.76"/><circle class="cls-1" cx="343.87" cy="190.96" r="4.76"/><circle class="cls-1" cx="343.87" cy="220.01" r="4.76"/><circle class="cls-1" cx="288.59" cy="215.24" r="4.76"/><circle class="cls-1" cx="253.71" cy="209.39" r="4.76"/><circle class="cls-1" cx="232.35" cy="186.2" r="4.76"/><circle class="cls-1" cx="263.23" cy="176.68" r="4.76"/><circle class="cls-1" cx="238.9" cy="147.14" r="4.76"/><line class="cls-2" x1="289.79" y1="47.28" x2="293.95" y2="70.43"/><line class="cls-2" x1="292.47" y1="43.05" x2="348.05" y2="56.93"/><line class="cls-2" x1="292.12" y1="39.8" x2="329.44" y2="27.32"/><line class="cls-2" x1="288.59" y1="39.77" x2="293.35" y2="22.55"/><line class="cls-2" x1="267.99" y1="38.29" x2="286.2" y2="41.39"/><line class="cls-2" x1="243.66" y1="63.47" x2="284.94" y2="46.08"/><circle class="cls-3" cx="288.59" cy="43.05" r="4.76"/><line class="cls-2" x1="264.3" y1="112.61" x2="263.23" y2="128.3"/><line class="cls-2" x1="267.99" y1="133.06" x2="277.06" y2="133.66"/><line class="cls-2" x1="242" y1="145.64" x2="263.23" y2="133.66"/><circle class="cls-3" cx="263.23" cy="133.06" r="4.76"/><line class="cls-2" x1="263.23" y1="176.68" x2="270.74" y2="201.62"/><line class="cls-2" x1="234.13" y1="187.47" x2="266.98" y2="203.61"/><line class="cls-2" x1="258.47" y1="209.39" x2="266.98" y2="208"/><line class="cls-2" x1="271.19" y1="205.81" x2="288.59" y2="215.24"/><circle class="cls-3" cx="271.19" cy="205.81" r="4.76"/><line class="cls-2" x1="320.74" y1="184.43" x2="341.81" y2="189.15"/><line class="cls-2" x1="318.13" y1="183.52" x2="341.81" y2="217.7"/><line class="cls-2" x1="296.85" y1="161.67" x2="315.69" y2="181.44"/><line class="cls-2" x1="324.67" y1="144.16" x2="318.13" y2="181.44"/><circle class="cls-3" cx="318.13" cy="183.52" r="4.76"/><line class="cls-2" x1="341.81" y1="107.85" x2="332.64" y2="109.63"/><line class="cls-2" x1="350.41" y1="114.39" x2="344.04" y2="108.74"/><line class="cls-2" x1="344.79" y1="97.69" x2="342.78" y2="107.04"/><circle class="cls-3" cx="341.81" cy="107.85" r="4.76"/><circle class="cls-1" cx="35.8" cy="64.02" r="4.76"/><circle class="cls-1" cx="63.33" cy="38.29" r="4.76"/><circle class="cls-1" cx="90.25" cy="22.55" r="4.76"/><circle class="cls-1" cx="128.12" cy="25.24" r="4.76"/><circle class="cls-1" cx="146.74" cy="56.93" r="4.76"/><circle class="cls-1" cx="90.25" cy="68.24" r="4.76"/><circle class="cls-1" cx="141.7" cy="96.55" r="4.76"/><circle class="cls-1" cx="147.31" cy="116.57" r="4.76"/><circle class="cls-1" cx="126.83" cy="109.63" r="4.76"/><circle class="cls-1" cx="62.13" cy="111.81" r="4.76"/><circle class="cls-1" cx="78.72" cy="133.66" r="4.76"/><circle class="cls-1" cx="93.24" cy="161.17" r="4.76"/><circle class="cls-1" cx="121.58" cy="144.16" r="4.76"/><circle class="cls-1" cx="140.77" cy="190.96" r="4.76"/><circle class="cls-1" cx="140.77" cy="220.01" r="4.76"/><circle class="cls-1" cx="85.49" cy="215.24" r="4.76"/><circle class="cls-1" cx="50.62" cy="209.39" r="4.76"/><circle class="cls-1" cx="29.26" cy="186.2" r="4.76"/><circle class="cls-1" cx="60.14" cy="176.68" r="4.76"/><circle class="cls-1" cx="35.8" cy="147.14" r="4.76"/><rect class="cls-4" x="0.46" y="0.46" width="383.3" height="247.95"/><line class="cls-4" x1="197.55" y1="0.46" x2="197.55" y2="248.41"/></g></svg>